<svg xmlns="http://www.w3.org/2000/svg" xmlns:xlink="http://www.w3.org/1999/xlink" width="500" zoomAndPan="magnify" viewBox="0 0 375 374.999991" height="500" preserveAspectRatio="xMidYMid meet" version="1.0"><defs><clipPath id="e511354029"><path d="M 27.464844 9.660156 L 347.535156 9.660156 L 347.535156 329.734375 L 27.464844 329.734375 Z M 27.464844 9.660156 " clip-rule="nonzero"/></clipPath><clipPath id="8f58f69c21"><path d="M 187.5 9.660156 C 99.113281 9.660156 27.464844 81.3125 27.464844 169.699219 C 27.464844 258.082031 99.113281 329.734375 187.5 329.734375 C 275.886719 329.734375 347.535156 258.082031 347.535156 169.699219 C 347.535156 81.3125 275.886719 9.660156 187.5 9.660156 " clip-rule="nonzero"/></clipPath><clipPath id="6571d96b29"><path d="M 36 44 L 339 44 L 339 350 L 36 350 Z M 36 44 " clip-rule="nonzero"/></clipPath><clipPath id="6350abfbb5"><path d="M 0 216.742188 L 187.738281 29.007812 L 374.941406 216.210938 L 187.207031 403.949219 Z M 0 216.742188 " clip-rule="nonzero"/></clipPath><clipPath id="54c87c1397"><path d="M 0 216.742188 L 187.738281 29.007812 L 374.941406 216.210938 L 187.207031 403.949219 Z M 0 216.742188 " clip-rule="nonzero"/></clipPath><clipPath id="f5cb1933da"><path d="M 0 216.742188 L 187.738281 29.007812 L 374.941406 216.210938 L 187.207031 403.949219 Z M 0 216.742188 " clip-rule="nonzero"/></clipPath></defs><g clip-path="url(#e511354029)"><g clip-path="url(#8f58f69c21)"><path fill="#008037" d="M 27.464844 9.660156 L 347.535156 9.660156 L 347.535156 329.734375 L 27.464844 329.734375 Z M 27.464844 9.660156 " fill-opacity="1" fill-rule="nonzero"/></g></g><g clip-path="url(#6571d96b29)"><g clip-path="url(#6350abfbb5)"><g clip-path="url(#54c87c1397)"><g clip-path="url(#f5cb1933da)"><path fill="#ffffff" d="M 37.285156 253.132812 L 36.890625 237.777344 C 36.890625 229.003906 45.789062 223.144531 45.789062 223.144531 L 70.691406 204.246094 L 70.921875 182.289062 C 71.019531 170.703125 85.082031 174.214844 85.820312 179.542969 L 86.75 191.863281 L 114.707031 172.644531 L 113.375 155.296875 C 111.691406 136.507812 127.28125 139.363281 128.847656 148.652344 L 130.230469 160.375 L 170.289062 129.5625 C 171.414062 69.746094 171.683594 45.128906 186.929688 44.347656 C 202.277344 43.554688 202.511719 72.339844 203.371094 128.714844 L 244.949219 160.214844 L 246.1875 146.597656 C 246.914062 138.558594 260.554688 136.636719 260.148438 152.300781 L 259.570312 172.152344 L 287.800781 191.761719 L 289.269531 180.46875 C 290.414062 170.339844 303.195312 169.445312 303.722656 185.203125 L 303.808594 205.5625 C 303.703125 206.292969 328.09375 223.234375 328.09375 223.234375 C 340.519531 231.066406 338.507812 240.476562 338.507812 240.476562 L 337.625 253.511719 L 236.40625 205.191406 C 227.636719 200.808594 214.9375 199.214844 206.503906 209.34375 C 202.121094 214.765625 198.105469 235.527344 198.417969 239.183594 L 197.339844 295.46875 C 197.128906 296.726562 237.636719 326.941406 237.636719 326.941406 C 238.675781 327.984375 241.515625 349.011719 241.515625 349.011719 L 190.96875 334.816406 L 186.171875 347.964844 L 183.242188 334.539062 L 132.03125 348.773438 L 135.324219 327.523438 C 142.523438 323.039062 176.605469 295.851562 176.917969 294.910156 C 176.917969 294.910156 177.105469 245.195312 177.035156 242.277344 C 176.609375 225.363281 176.140625 219.347656 173.113281 213.820312 C 170.078125 208.277344 161.664062 204.132812 140.777344 209.121094 C 111.96875 216 37.285156 253.132812 37.285156 253.132812 Z M 37.285156 253.132812 " fill-opacity="1" fill-rule="nonzero"/></g></g></g></g></svg>