<svg xmlns="http://www.w3.org/2000/svg" xmlns:xlink="http://www.w3.org/1999/xlink" width="500" zoomAndPan="magnify" viewBox="0 0 375 374.999991" height="500" preserveAspectRatio="xMidYMid meet" version="1.0"><defs><g/><clipPath id="d9751a79a9"><path d="M 109.738281 79.957031 L 265.261719 79.957031 L 265.261719 235.480469 L 109.738281 235.480469 Z M 109.738281 79.957031 " clip-rule="nonzero"/></clipPath><clipPath id="b99fab3121"><path d="M 187.5 79.957031 C 144.554688 79.957031 109.738281 114.773438 109.738281 157.71875 C 109.738281 200.664062 144.554688 235.480469 187.5 235.480469 C 230.445312 235.480469 265.261719 200.664062 265.261719 157.71875 C 265.261719 114.773438 230.445312 79.957031 187.5 79.957031 " clip-rule="nonzero"/></clipPath><clipPath id="b32502c640"><path d="M 114 96 L 261 96 L 261 245 L 114 245 Z M 114 96 " clip-rule="nonzero"/></clipPath><clipPath id="1c6a6fc64b"><path d="M 96.394531 180.574219 L 187.613281 89.359375 L 278.300781 180.046875 L 187.082031 271.261719 Z M 96.394531 180.574219 " clip-rule="nonzero"/></clipPath><clipPath id="757e1d5fc7"><path d="M 96.394531 180.574219 L 187.613281 89.359375 L 278.300781 180.046875 L 187.082031 271.261719 Z M 96.394531 180.574219 " clip-rule="nonzero"/></clipPath><clipPath id="797075ccc9"><path d="M 96.394531 180.574219 L 187.613281 89.359375 L 278.300781 180.046875 L 187.082031 271.261719 Z M 96.394531 180.574219 " clip-rule="nonzero"/></clipPath></defs><rect x="-37.5" width="450" fill="#ffffff" y="-37.499999" height="449.999989" fill-opacity="1"/><rect x="-37.5" width="450" fill="#ffffff" y="-37.499999" height="449.999989" fill-opacity="1"/><rect x="-37.5" width="450" fill="#ffffff" y="-37.499999" height="449.999989" fill-opacity="1"/><g clip-path="url(#d9751a79a9)"><g clip-path="url(#b99fab3121)"><path fill="#008037" d="M 109.738281 79.957031 L 265.261719 79.957031 L 265.261719 235.480469 L 109.738281 235.480469 Z M 109.738281 79.957031 " fill-opacity="1" fill-rule="nonzero"/></g></g><g clip-path="url(#b32502c640)"><g clip-path="url(#1c6a6fc64b)"><g clip-path="url(#757e1d5fc7)"><g clip-path="url(#797075ccc9)"><path fill="#ffffff" d="M 114.457031 198.203125 L 114.277344 190.753906 C 114.285156 186.496094 118.605469 183.648438 118.605469 183.648438 L 130.703125 174.460938 L 130.828125 163.808594 C 130.882812 158.1875 137.703125 159.878906 138.058594 162.464844 L 138.5 168.441406 L 152.078125 159.097656 L 151.445312 150.683594 C 150.640625 141.566406 158.203125 142.941406 158.957031 147.449219 L 159.617188 153.132812 L 179.074219 138.15625 C 179.664062 109.136719 179.8125 97.191406 187.210938 96.800781 C 194.65625 96.40625 194.75 110.371094 195.125 137.722656 L 215.273438 152.972656 L 215.882812 146.367188 C 216.242188 142.464844 222.863281 141.523438 222.652344 149.121094 L 222.359375 158.753906 L 236.039062 168.246094 L 236.761719 162.769531 C 237.324219 157.851562 243.523438 157.410156 243.769531 165.054688 L 243.796875 174.929688 C 243.742188 175.285156 255.566406 183.488281 255.566406 183.488281 C 261.589844 187.277344 260.605469 191.84375 260.605469 191.84375 L 260.167969 198.167969 L 211.097656 174.800781 C 206.84375 172.679688 200.683594 171.917969 196.585938 176.835938 C 194.457031 179.46875 192.492188 189.542969 192.640625 191.320312 L 192.078125 218.625 C 191.972656 219.234375 211.605469 233.867188 211.605469 233.867188 C 212.109375 234.371094 213.472656 244.570312 213.472656 244.570312 L 188.957031 237.71875 L 186.621094 244.101562 L 185.210938 237.59375 L 160.355469 244.535156 L 161.96875 234.222656 C 165.464844 232.042969 182.019531 218.828125 182.171875 218.371094 C 182.171875 218.371094 182.296875 194.25 182.265625 192.835938 C 182.070312 184.628906 181.847656 181.710938 180.382812 179.03125 C 178.914062 176.34375 174.835938 174.339844 164.699219 176.777344 C 150.71875 180.132812 114.457031 198.203125 114.457031 198.203125 Z M 114.457031 198.203125 " fill-opacity="1" fill-rule="nonzero"/></g></g></g></g><g fill="#000000" fill-opacity="1"><g transform="translate(89.489851, 265.283275)"><g><path d="M 12.875 0.421875 C 9.363281 0.421875 6.835938 -0.492188 5.296875 -2.328125 C 3.753906 -4.160156 2.984375 -6.847656 2.984375 -10.390625 L 2.984375 -18.28125 L 0.609375 -18.28125 L 0.609375 -23.484375 L 13.421875 -23.484375 L 13.421875 -18.28125 L 11.234375 -18.28125 L 11.234375 -8.40625 C 11.234375 -7.4375 11.46875 -6.644531 11.9375 -6.03125 C 12.414062 -5.414062 13.160156 -5.109375 14.171875 -5.109375 C 15.015625 -5.109375 15.679688 -5.359375 16.171875 -5.859375 C 16.671875 -6.367188 16.921875 -7.054688 16.921875 -7.921875 L 16.921875 -18.28125 L 14.5 -18.28125 L 14.5 -23.484375 L 24.140625 -23.484375 L 24.140625 -18.28125 L 21.875 -18.28125 L 21.875 -8.125 C 21.875 -5.300781 21.046875 -3.171875 19.390625 -1.734375 C 17.742188 -0.296875 15.570312 0.421875 12.875 0.421875 Z M 12.875 0.421875 "/></g></g></g><g fill="#000000" fill-opacity="1"><g transform="translate(114.453716, 265.283275)"><g><path d="M 0.9375 -4.4375 L 2.84375 -4.4375 L 2.84375 -11.234375 L 0.9375 -11.234375 L 0.9375 -15.234375 L 9.90625 -16.109375 L 9.90625 -13.53125 C 10.375 -14.28125 11.148438 -14.894531 12.234375 -15.375 C 13.328125 -15.863281 14.285156 -16.109375 15.109375 -16.109375 L 15.109375 -9.84375 C 13.960938 -10.226562 13.015625 -10.421875 12.265625 -10.421875 C 11.316406 -10.421875 10.6875 -10.148438 10.375 -9.609375 C 10.0625 -9.066406 9.90625 -8.351562 9.90625 -7.46875 L 9.90625 -4.4375 L 12.265625 -4.4375 L 12.265625 0 L 0.9375 0 Z M 0.9375 -4.4375 "/></g></g></g><g fill="#000000" fill-opacity="1"><g transform="translate(130.260135, 265.283275)"><g><path d="M 9.671875 5.734375 C 7.578125 5.734375 5.359375 5.429688 3.015625 4.828125 L 3.015625 0.578125 C 4.328125 0.972656 5.410156 1.273438 6.265625 1.484375 C 7.128906 1.703125 7.972656 1.8125 8.796875 1.8125 C 11.171875 1.8125 12.359375 0.632812 12.359375 -1.71875 C 11.816406 -1.238281 11.148438 -0.832031 10.359375 -0.5 C 9.578125 -0.164062 8.691406 0 7.703125 0 C 6.273438 0 5.066406 -0.351562 4.078125 -1.0625 C 3.085938 -1.78125 2.347656 -2.742188 1.859375 -3.953125 C 1.367188 -5.160156 1.125 -6.503906 1.125 -7.984375 C 1.125 -9.492188 1.375 -10.863281 1.875 -12.09375 C 2.375 -13.320312 3.117188 -14.296875 4.109375 -15.015625 C 5.097656 -15.742188 6.296875 -16.109375 7.703125 -16.109375 C 9.640625 -16.109375 11.191406 -15.269531 12.359375 -13.59375 L 13.421875 -15.796875 L 20.9375 -15.796875 L 20.9375 -11.234375 L 19.515625 -11.234375 L 19.515625 -2 C 19.515625 0.5625 18.617188 2.488281 16.828125 3.78125 C 15.035156 5.082031 12.648438 5.734375 9.671875 5.734375 Z M 10.484375 -4.046875 C 10.953125 -4.046875 11.375 -4.1875 11.75 -4.46875 C 12.132812 -4.75 12.367188 -5.03125 12.453125 -5.3125 L 12.453125 -10.703125 C 12.265625 -11.046875 11.988281 -11.3125 11.625 -11.5 C 11.269531 -11.6875 10.847656 -11.78125 10.359375 -11.78125 C 9.554688 -11.78125 8.910156 -11.429688 8.421875 -10.734375 C 7.941406 -10.046875 7.703125 -9.097656 7.703125 -7.890625 C 7.703125 -6.742188 7.941406 -5.816406 8.421875 -5.109375 C 8.910156 -4.398438 9.597656 -4.046875 10.484375 -4.046875 Z M 10.484375 -4.046875 "/></g></g></g><g fill="#000000" fill-opacity="1"><g transform="translate(152.262178, 265.283275)"><g><path d="M 9.90625 0.265625 C 8.070312 0.265625 6.476562 -0.0664062 5.125 -0.734375 C 3.78125 -1.410156 2.742188 -2.375 2.015625 -3.625 C 1.296875 -4.875 0.9375 -6.335938 0.9375 -8.015625 C 0.9375 -9.660156 1.285156 -11.09375 1.984375 -12.3125 C 2.691406 -13.53125 3.6875 -14.46875 4.96875 -15.125 C 6.25 -15.78125 7.742188 -16.109375 9.453125 -16.109375 C 11.046875 -16.109375 12.445312 -15.796875 13.65625 -15.171875 C 14.863281 -14.546875 15.800781 -13.65625 16.46875 -12.5 C 17.132812 -11.351562 17.46875 -10.015625 17.46875 -8.484375 C 17.46875 -7.960938 17.382812 -7.460938 17.21875 -6.984375 L 8.03125 -6.984375 C 8.03125 -6.054688 8.378906 -5.3125 9.078125 -4.75 C 9.773438 -4.195312 10.617188 -3.921875 11.609375 -3.921875 C 12.347656 -3.921875 13.164062 -4.050781 14.0625 -4.3125 C 14.957031 -4.582031 15.859375 -4.988281 16.765625 -5.53125 L 17.015625 -5.4375 L 17.015625 -1.484375 C 16.003906 -0.898438 14.960938 -0.460938 13.890625 -0.171875 C 12.828125 0.117188 11.5 0.265625 9.90625 0.265625 Z M 11.8125 -9.578125 L 11.8125 -9.875 C 11.8125 -10.582031 11.648438 -11.1875 11.328125 -11.6875 C 11.003906 -12.195312 10.53125 -12.453125 9.90625 -12.453125 C 9.382812 -12.453125 8.941406 -12.191406 8.578125 -11.671875 C 8.210938 -11.160156 8.03125 -10.601562 8.03125 -10 L 8.03125 -9.578125 Z M 11.8125 -9.578125 "/></g></g></g><g fill="#000000" fill-opacity="1"><g transform="translate(171.090855, 265.283275)"><g/></g></g><g fill="#000000" fill-opacity="1"><g transform="translate(177.316704, 265.283275)"><g><path d="M 8.34375 0 L 3.015625 -18.28125 L 0.578125 -18.28125 L 0.578125 -23.484375 L 13.328125 -23.484375 L 13.328125 -18.28125 L 11.640625 -18.28125 L 14.59375 -7.609375 L 17.1875 -18.28125 L 15.265625 -18.28125 L 15.265625 -23.484375 L 25.5 -23.484375 L 25.5 -18.28125 L 22.84375 -18.28125 L 16.984375 0 Z M 8.34375 0 "/></g></g></g><g fill="#000000" fill-opacity="1"><g transform="translate(203.549913, 265.283275)"><g><path d="M 6.703125 -17.34375 C 5.472656 -17.34375 4.460938 -17.632812 3.671875 -18.21875 C 2.878906 -18.800781 2.484375 -19.640625 2.484375 -20.734375 C 2.484375 -21.816406 2.878906 -22.640625 3.671875 -23.203125 C 4.460938 -23.765625 5.484375 -24.046875 6.734375 -24.046875 C 7.984375 -24.046875 9 -23.769531 9.78125 -23.21875 C 10.570312 -22.664062 10.96875 -21.835938 10.96875 -20.734375 C 10.96875 -19.640625 10.5625 -18.800781 9.75 -18.21875 C 8.945312 -17.632812 7.929688 -17.34375 6.703125 -17.34375 Z M 1.265625 0 L 1.265625 -4.4375 L 3.171875 -4.4375 L 3.171875 -11.234375 L 1.265625 -11.234375 L 1.265625 -14.875 L 10.25 -15.796875 L 10.25 -4.4375 L 12.140625 -4.4375 L 12.140625 0 Z M 1.265625 0 "/></g></g></g><g fill="#000000" fill-opacity="1"><g transform="translate(216.666524, 265.283275)"><g><path d="M 6.59375 0.265625 C 5.601562 0.265625 4.691406 0.0703125 3.859375 -0.3125 C 3.035156 -0.707031 2.375 -1.265625 1.875 -1.984375 C 1.382812 -2.710938 1.140625 -3.5625 1.140625 -4.53125 C 1.140625 -5.582031 1.425781 -6.460938 2 -7.171875 C 2.582031 -7.890625 3.347656 -8.425781 4.296875 -8.78125 C 5.242188 -9.132812 6.257812 -9.3125 7.34375 -9.3125 C 8.632812 -9.3125 9.875 -9.117188 11.0625 -8.734375 L 11.0625 -9.390625 C 11.0625 -10.179688 10.726562 -10.78125 10.0625 -11.1875 C 9.394531 -11.601562 8.5 -11.8125 7.375 -11.8125 C 6.644531 -11.8125 5.804688 -11.679688 4.859375 -11.421875 C 3.910156 -11.160156 3.128906 -10.835938 2.515625 -10.453125 L 2.078125 -10.640625 L 2.078125 -14.921875 C 3.273438 -15.347656 4.488281 -15.648438 5.71875 -15.828125 C 6.957031 -16.015625 8.113281 -16.109375 9.1875 -16.109375 C 15.164062 -16.109375 18.15625 -14.425781 18.15625 -11.0625 L 18.15625 -4.4375 L 19.546875 -4.4375 L 19.546875 0 L 12 0 L 11.328125 -2.421875 C 10.910156 -1.585938 10.253906 -0.929688 9.359375 -0.453125 C 8.460938 0.0234375 7.539062 0.265625 6.59375 0.265625 Z M 9.375 -3.5 C 9.6875 -3.5 10.015625 -3.554688 10.359375 -3.671875 C 10.703125 -3.785156 10.9375 -3.898438 11.0625 -4.015625 L 11.0625 -6.5 C 10.914062 -6.519531 10.675781 -6.570312 10.34375 -6.65625 C 10.007812 -6.75 9.722656 -6.796875 9.484375 -6.796875 C 8.960938 -6.796875 8.546875 -6.632812 8.234375 -6.3125 C 7.921875 -5.988281 7.765625 -5.554688 7.765625 -5.015625 C 7.765625 -4.609375 7.910156 -4.253906 8.203125 -3.953125 C 8.492188 -3.648438 8.882812 -3.5 9.375 -3.5 Z M 9.375 -3.5 "/></g></g></g><g fill="#000000" fill-opacity="1"><g transform="translate(237.278328, 265.283275)"><g><path d="M 6.21875 -17.34375 C 4.988281 -17.34375 3.972656 -17.632812 3.171875 -18.21875 C 2.367188 -18.800781 1.96875 -19.640625 1.96875 -20.734375 C 1.96875 -21.816406 2.363281 -22.640625 3.15625 -23.203125 C 3.945312 -23.765625 4.96875 -24.046875 6.21875 -24.046875 C 7.488281 -24.046875 8.507812 -23.769531 9.28125 -23.21875 C 10.0625 -22.664062 10.453125 -21.835938 10.453125 -20.734375 C 10.453125 -19.617188 10.050781 -18.773438 9.25 -18.203125 C 8.457031 -17.628906 7.445312 -17.34375 6.21875 -17.34375 Z M 1.03125 1.359375 L 1.484375 1.359375 C 2.753906 1.359375 3.390625 0.90625 3.390625 0 L 3.390625 -11.234375 L 1.03125 -11.234375 L 1.03125 -14.875 L 10.453125 -15.796875 L 10.453125 -1.203125 C 10.453125 0.703125 10.101562 2.171875 9.40625 3.203125 C 8.71875 4.234375 7.695312 4.929688 6.34375 5.296875 C 5 5.671875 3.226562 5.859375 1.03125 5.859375 Z M 1.03125 1.359375 "/></g></g></g><g fill="#000000" fill-opacity="1"><g transform="translate(249.095359, 265.283275)"><g><path d="M 6.59375 0.265625 C 5.601562 0.265625 4.691406 0.0703125 3.859375 -0.3125 C 3.035156 -0.707031 2.375 -1.265625 1.875 -1.984375 C 1.382812 -2.710938 1.140625 -3.5625 1.140625 -4.53125 C 1.140625 -5.582031 1.425781 -6.460938 2 -7.171875 C 2.582031 -7.890625 3.347656 -8.425781 4.296875 -8.78125 C 5.242188 -9.132812 6.257812 -9.3125 7.34375 -9.3125 C 8.632812 -9.3125 9.875 -9.117188 11.0625 -8.734375 L 11.0625 -9.390625 C 11.0625 -10.179688 10.726562 -10.78125 10.0625 -11.1875 C 9.394531 -11.601562 8.5 -11.8125 7.375 -11.8125 C 6.644531 -11.8125 5.804688 -11.679688 4.859375 -11.421875 C 3.910156 -11.160156 3.128906 -10.835938 2.515625 -10.453125 L 2.078125 -10.640625 L 2.078125 -14.921875 C 3.273438 -15.347656 4.488281 -15.648438 5.71875 -15.828125 C 6.957031 -16.015625 8.113281 -16.109375 9.1875 -16.109375 C 15.164062 -16.109375 18.15625 -14.425781 18.15625 -11.0625 L 18.15625 -4.4375 L 19.546875 -4.4375 L 19.546875 0 L 12 0 L 11.328125 -2.421875 C 10.910156 -1.585938 10.253906 -0.929688 9.359375 -0.453125 C 8.460938 0.0234375 7.539062 0.265625 6.59375 0.265625 Z M 9.375 -3.5 C 9.6875 -3.5 10.015625 -3.554688 10.359375 -3.671875 C 10.703125 -3.785156 10.9375 -3.898438 11.0625 -4.015625 L 11.0625 -6.5 C 10.914062 -6.519531 10.675781 -6.570312 10.34375 -6.65625 C 10.007812 -6.75 9.722656 -6.796875 9.484375 -6.796875 C 8.960938 -6.796875 8.546875 -6.632812 8.234375 -6.3125 C 7.921875 -5.988281 7.765625 -5.554688 7.765625 -5.015625 C 7.765625 -4.609375 7.910156 -4.253906 8.203125 -3.953125 C 8.492188 -3.648438 8.882812 -3.5 9.375 -3.5 Z M 9.375 -3.5 "/></g></g></g><g fill="#000000" fill-opacity="1"><g transform="translate(269.707163, 265.283275)"><g><path d="M 0.9375 -4.4375 L 2.84375 -4.4375 L 2.84375 -11.234375 L 0.9375 -11.234375 L 0.9375 -15.234375 L 9.90625 -16.109375 L 9.90625 -13.53125 C 10.375 -14.28125 11.148438 -14.894531 12.234375 -15.375 C 13.328125 -15.863281 14.285156 -16.109375 15.109375 -16.109375 L 15.109375 -9.84375 C 13.960938 -10.226562 13.015625 -10.421875 12.265625 -10.421875 C 11.316406 -10.421875 10.6875 -10.148438 10.375 -9.609375 C 10.0625 -9.066406 9.90625 -8.351562 9.90625 -7.46875 L 9.90625 -4.4375 L 12.265625 -4.4375 L 12.265625 0 L 0.9375 0 Z M 0.9375 -4.4375 "/></g></g></g></svg>